<?xml version="1.0" standalone="no"?><!DOCTYPE svg PUBLIC "-//W3C//DTD SVG 1.1//EN" "http://www.w3.org/Graphics/SVG/1.1/DTD/svg11.dtd"><svg t="1587992195088" class="icon" viewBox="0 0 1024 1024" version="1.1" xmlns="http://www.w3.org/2000/svg" p-id="8766" xmlns:xlink="http://www.w3.org/1999/xlink" width="200" height="200"><defs><style type="text/css"></style></defs><path d="M271.594 150.886l-18.094 78.468-25.03 25.014-77.56 17.234L0.01 120.716 120.724 0.018z" fill="#E6E9ED" p-id="8767"></path><path d="M306.842 276.664L60.382 30.188c-8.344-8.328-21.844-8.328-30.188 0s-8.344 21.844 0 30.172l246.46 246.474c4.188 4.172 9.624 6.25 15.094 6.25s10.938-2.078 15.092-6.25c8.346-8.326 8.346-21.842 0.002-30.17z" fill="#FFCE54" p-id="8768"></path><path d="M788.326 199.198c-65.214 0-124.184 26.812-166.492 69.982-42.282-43.17-101.248-69.982-166.464-69.982-128.746 0-233.086 104.358-233.086 233.086 0 266.396 399.55 499.452 399.55 499.452S1021.412 698.68 1021.412 432.284c0-128.73-104.37-233.086-233.086-233.086z" fill="#ED5564" p-id="8769"></path><path d="M788.326 199.198c-7.188 0-14.312 0.344-21.31 0.984 118.714 10.782 211.71 110.574 211.71 232.102 0 229.054-295.428 433.486-378.206 486.266 13.468 8.624 21.312 13.186 21.312 13.186s399.58-233.056 399.58-499.452c0-128.73-104.37-233.086-233.086-233.086z" fill="#FFFFFF" opacity=".2" p-id="8770"></path><path d="M923.072 944.39a21.3 21.3 0 0 1-15.094-6.25l-197.554-197.524c-8.344-8.376-8.344-21.876 0-30.188a21.332 21.332 0 0 1 30.188 0l197.524 197.556c8.344 8.312 8.344 21.81 0 30.154a21.28 21.28 0 0 1-15.064 6.252z" fill="#FFCE54" p-id="8771"></path><path d="M1001.382 884.894c-10.75-10.782-25.062-16.688-40.248-16.688-15.218 0-29.532 5.906-40.282 16.688-6.344 6.344-11.032 13.904-13.782 22.216a56.692 56.692 0 0 0-22.186 13.75c-22.188 22.186-22.188 58.31 0 80.53 14.998 14.966 37.686 22.592 67.436 22.592 26.154 0 49.216-6 50.214-6.25l12.032-3.188 3.156-12.03c0.218-0.782 5.094-19.562 6.094-42.282 1.44-33.654-6.092-58.996-22.434-75.338z" fill="#ED5564" p-id="8772"></path></svg>