<svg width="256" height="256" xmlns="http://www.w3.org/2000/svg">
 <defs>
  <filter height="200%" width="200%" y="-50%" x="-50%" id="svg_4_blur">
   <feGaussianBlur stdDeviation="0" in="SourceGraphic"/>
  </filter>
 </defs>
 <g>
  <title>background</title>
  <rect fill="none" id="canvas_background" height="402" width="582" y="-1" x="-1"/>
 </g>
 <g>
  <title>Layer 1</title>
  <path filter="url(#svg_4_blur)" opacity="0.82" transform="rotate(-24 128,127.99999999999996) " id="svg_4" d="m128.006876,74.059323c-29.805259,0 -53.944093,24.13884 -53.944093,53.944106c0,29.784711 24.138834,53.937254 53.944093,53.937254c29.777852,0 53.930389,-24.152543 53.930389,-53.937254c0.006852,-29.805266 -24.138834,-53.944106 -53.930389,-53.944106zm0,94.184641c-22.227186,-0.054814 -40.192563,-18.020195 -40.247377,-40.233683c0.047962,-22.22034 18.020191,-40.192572 40.247377,-40.247387c22.213483,0.054814 40.17886,18.027047 40.226822,40.247387c-0.047962,22.213488 -18.013339,40.178869 -40.226822,40.233683zm0,-97.795531c3.789036,0 6.851784,-3.0696 6.851784,-6.858637l0,-33.23801c-0.013704,-3.789037 -3.069599,-6.851785 -6.851784,-6.851785c-3.789036,0 -6.858635,3.076452 -6.851784,6.865489l0,33.231159c0,3.775334 3.062747,6.851785 6.851784,6.851785zm22.014781,4.371439c0.856473,0.363145 1.747205,0.520736 2.617381,0.527587c2.699603,0 5.241615,-1.596466 6.3379,-4.234403l12.716911,-30.716553c1.438875,-3.501262 -0.212405,-7.502705 -3.706815,-8.948432c-3.501261,-1.445727 -7.509555,0.212405 -8.962133,3.706816l-12.710059,30.723405c-1.445726,3.49441 0.212405,7.502705 3.706815,8.94158zm18.671111,12.477101c1.336098,1.329246 3.090154,2.007573 4.844211,2.007573s3.508113,-0.671475 4.844211,-2.007573l23.501618,-23.522179c2.679047,-2.672196 2.672196,-7.009376 0,-9.695276c-2.685899,-2.672196 -7.023078,-2.672196 -9.695274,0.013704l-23.494766,23.508475c-2.679047,2.679048 -2.679047,7.016228 0,9.695276zm12.490802,18.664263c1.082582,2.637937 3.638297,4.227552 6.324196,4.227552c0.870177,0 1.760908,-0.171295 2.624233,-0.534439l30.695991,-12.723765c3.501261,-1.445727 5.159393,-5.460873 3.706815,-8.955283s-5.45402,-5.152543 -8.955281,-3.699964l-30.702843,12.723765c-3.49441,1.452578 -5.14569,5.467725 -3.693111,8.962135zm44.461224,15.149297l-33.238003,0.006852c-3.782185,0 -6.851784,3.0696 -6.83808,6.858637c0,3.789037 3.062747,6.844934 6.83808,6.844934l33.244854,-0.013704c3.789036,0 6.844932,-3.076452 6.844932,-6.851785c0,-3.789037 -3.069599,-6.858637 -6.851784,-6.844934zm-4.782545,37.876669l-30.709695,-12.70321c-3.508113,-1.452578 -7.516407,0.205554 -8.955281,3.706816c-1.445726,3.501262 0.212405,7.509557 3.706815,8.962135l30.709695,12.70321c0.863325,0.349441 1.754057,0.513884 2.624233,0.513884c2.692751,0 5.241615,-1.589614 6.3379,-4.227552c1.438875,-3.501262 -0.226109,-7.516408 -3.713667,-8.955283zm-42.439948,9.681573c-2.679047,-2.679048 -7.009375,-2.679048 -9.688422,0.006852c-2.679047,2.672196 -2.672196,7.002525 0,9.681573l23.529025,23.494772c1.336098,1.336098 3.083303,2.007573 4.837359,2.007573s3.514965,-0.671475 4.851063,-2.007573c2.679047,-2.6859 2.665344,-7.02308 0,-9.695276l-23.529025,-23.48792zm-19.3974,16.190769c-1.445726,-3.501262 -5.45402,-5.152543 -8.955281,-3.706816c-3.49441,1.452578 -5.152541,5.460873 -3.699963,8.962135l12.744318,30.695998c1.089434,2.637937 3.638297,4.227552 6.3379,4.227552c0.877028,0 1.76776,-0.164443 2.624233,-0.520736c3.501261,-1.445727 5.152541,-5.460873 3.699963,-8.968987l-12.751169,-30.689146zm-30.949507,0.705734c-3.789036,0 -6.851784,3.0696 -6.851784,6.851785l0.027407,33.23801c0,3.789037 3.076451,6.844934 6.851784,6.844934c3.789036,0 6.851784,-3.0696 6.83808,-6.851785l-0.020555,-33.244862c0,-3.768482 -3.076451,-6.844934 -6.844932,-6.838082zm-22.035336,-4.357735c-3.49441,-1.438875 -7.495851,0.212405 -8.94843,3.720519l-12.689503,30.716553c-1.438875,3.501262 0.226109,7.509557 3.720519,8.955283c0.856473,0.356293 1.740353,0.520736 2.617381,0.520736c2.685899,0 5.241615,-1.603318 6.331048,-4.241255l12.696355,-30.730257c1.445726,-3.49441 -0.226109,-7.495853 -3.72737,-8.94158zm-18.677962,-12.449694c-2.685899,-2.679048 -7.023078,-2.665344 -9.695274,0.013704l-23.474211,23.522179c-2.679047,2.6859 -2.665344,7.009376 0.013704,9.695276c1.336098,1.329246 3.083303,2.000721 4.837359,2.000721c1.760908,0 3.514965,-0.671475 4.851063,-2.007573l23.481063,-23.529031c2.665344,-2.679048 2.665344,-7.016228 -0.013704,-9.695276zm-12.497653,-18.643708c-1.45943,-3.487559 -5.460872,-5.145691 -8.955281,-3.699964l-30.689139,12.751172c-3.501261,1.452578 -5.152541,5.467725 -3.699963,8.962135c1.096285,2.637937 3.638297,4.2207 6.331048,4.2207c0.870177,0 1.76776,-0.164443 2.624233,-0.520736l30.689139,-12.751172c3.487558,-1.466282 5.14569,-5.474576 3.699963,-8.962135zm-4.426252,-22.007934c0,-3.789037 -3.062747,-6.844934 -6.851784,-6.844934l-33.238003,0.041111c-3.789036,0 -6.858635,3.0696 -6.844932,6.858637c0.006852,3.775334 3.076451,6.851785 6.851784,6.838082l33.244854,-0.041111c3.782185,0 6.851784,-3.083303 6.83808,-6.851785zm-35.327797,-30.990625l30.73025,12.675803c0.856473,0.363145 1.740353,0.520736 2.61053,0.520736c2.692751,0 5.248466,-1.589614 6.3379,-4.234403c1.452578,-3.501262 -0.219257,-7.516408 -3.72737,-8.948432l-30.716546,-12.675803c-3.501261,-1.438875 -7.502703,0.219257 -8.94843,3.713668c-1.452578,3.501262 0.226109,7.495853 3.713667,8.948432zm42.433096,-9.715832c1.336098,1.322395 3.076451,1.99387 4.830508,1.99387s3.514965,-0.671475 4.857915,-2.021277c2.679047,-2.665344 2.665344,-7.009376 -0.027407,-9.688424l-23.529025,-23.460513c-2.672196,-2.672196 -7.023078,-2.658493 -9.688422,0.020555c-2.679047,2.672196 -2.665344,7.016228 0.013704,9.688424l23.542729,23.467365zm19.369992,-16.218176c1.096285,2.631086 3.645149,4.213848 6.324196,4.213848c0.877028,0 1.76776,-0.171295 2.631085,-0.527587c3.49441,-1.452578 5.159393,-5.467725 3.699963,-8.955283l-12.771725,-30.689146c-1.452578,-3.49441 -5.467723,-5.145691 -8.962133,-3.693112c-3.49441,1.45943 -5.14569,5.474576 -3.693111,8.962135l12.771725,30.689146z" fill-opacity="null" stroke-opacity="null" stroke-width="null" stroke="null" fill="#2366d1"/>
 </g>
</svg>